#!OML:ASF F:\VICON\USERDATA\INSTALL\rory3\rory3.ASF
:FULLY-SPECIFIED
:DEGREES
822
root 0.249176 17.3543 10.8401 -354.896 -47.8787 363.917
lowerback 10.2158 -0.200633 -3.66102
upperback -0.236286 -0.757667 -0.659651
thorax -5.95009 -0.276174 1.4862
lowerneck -9.57089 -15.4604 -15.0242
upperneck -27.2219 -18.5468 16.9863
head -3.64209 -9.22959 7.37616
rclavicle 5.98839e-015 1.03368e-014
rhumerus -17.7337 -3.68818 -82.4288
rradius 30.4816
rwrist 13.5625
rhand -23.9984 -0.690991
rfingers 7.12502
rthumb 2.47892 -30.6563
lclavicle 5.98839e-015 1.03368e-014
lhumerus -50.3572 14.6594 62.8295
lradius 60.3347
lwrist 0.0556885
lhand -19.5569 20.3308
lfingers 7.12502
lthumb 6.76759 50.2026
rfemur -37.5154 3.69869 14.4273
rtibia 35.2235
rfoot -4.82491 -8.38192
rtoes 12.9884
lfemur -9.60595 -14.9142 -11.5655
ltibia 28.8208
lfoot -17.5551 -2.20842
ltoes -29.1537
823
root 0.347891 17.3305 10.8167 -354.432 -48.7607 363.778
lowerback 10.3332 -0.0697932 -4.01695
upperback -0.177867 -0.615867 -0.417403
thorax -5.95639 -0.192682 1.92024
lowerneck -9.54952 -15.226 -14.8066
upperneck -27.7332 -18.2362 17.1611
head -3.84123 -9.11878 7.47575
rclavicle 3.94215e-014 4.96962e-017
rhumerus -18.397 -4.59486 -82.305
rradius 30.1406
rwrist 15.067
rhand -25.1774 -0.198086
rfingers 7.12502
rthumb 1.34023 -30.1736
lclavicle 3.94215e-014 4.96962e-017
lhumerus -50.5191 15.0959 62.9069
lradius 60.34
lwrist 0.295854
lhand -19.595 20.5969
lfingers 7.12502
lthumb 6.73082 50.4699
rfemur -38.425 4.10878 14.3721
rtibia 35.1282
rfoot -4.25343 -8.22749
rtoes 12.8578
lfemur -9.7101 -13.2794 -11.4533
ltibia 28.0052
lfoot -17.951 -2.76574
ltoes -27.6458
824
root 0.446201 17.3117 10.7901 -354.233 -49.6211 363.954
lowerback 10.4761 0.0462343 -4.53005
upperback -0.14718 -0.520088 -0.237804
thorax -6.00576 -0.126948 2.38468
lowerneck -9.37088 -15.0242 -14.7781
upperneck -28.2329 -17.9542 17.4903
head -4.01821 -9.02076 7.65375
rclavicle -4.55869e-014 4.29872e-015
rhumerus -19.1434 -5.26724 -82.0967
rradius 29.8233
rwrist 16.2244
rhand -26.3103 -0.415722
rfingers 7.12502
rthumb 0.24602 -30.3953
lclavicle -4.55869e-014 4.29872e-015
lhumerus -50.6937 15.5129 62.9534
lradius 60.2319
lwrist 0.569288
lhand -19.6382 20.6232
lfingers 7.12502
lthumb 6.68904 50.4975
rfemur -39.2725 4.46306 14.0847
rtibia 35.0002
rfoot -3.5931 -8.07888
rtoes 12.2233
lfemur -9.86408 -11.3498 -11.7489
ltibia 27.3515
lfoot -18.3172 -3.18365
ltoes -26.7189
825
root 0.539166 17.2945 10.7624 -354.062 -50.5003 364.337
lowerback 10.379 0.155137 -5.16329
upperback -0.0956356 -0.439531 -0.130709
thorax -5.89869 -0.0706813 2.84104
lowerneck -9.38524 -14.8405 -14.7106
upperneck -28.5892 -17.6899 17.7093
head -4.14062 -8.92398 7.76642
rclavicle -3.43804e-014 2.05494e-014
rhumerus -19.9823 -5.36307 -81.9897
rradius 29.9375
rwrist 16.2683
rhand -27.3565 -1.45227
rfingers 7.12502
rthumb -0.764402 -31.4306
lclavicle -3.43804e-014 2.05494e-014
lhumerus -50.7324 15.8635 63.0123
lradius 60.0808
lwrist 0.91217
lhand -19.6146 20.5722
lfingers 7.12502
lthumb 6.71182 50.4458
rfemur -40.2075 4.71743 13.6732
rtibia 34.8219
rfoot -3.00603 -7.93203
rtoes 12.0304
lfemur -10.2278 -9.23563 -12.3169
ltibia 26.9649
lfoot -18.8526 -3.31582
ltoes -25.6135
826
root 0.628467 17.2754 10.7288 -353.743 -51.2542 364.662
lowerback 10.0973 0.17222 -5.67119
upperback 0.0155208 -0.456993 -0.132349
thorax -5.61825 -0.0752117 3.12529
lowerneck -9.54013 -14.6575 -14.4367
upperneck -29.0578 -17.4118 17.9966
head -4.28944 -8.8444 7.87137
rclavicle 7.9147e-014 -1.98412e-014
rhumerus -20.6433 -5.56772 -82.106
rradius 30.0884
rwrist 15.703
rhand -28.3087 -1.99281
rfingers 7.12502
rthumb -1.68403 -31.9659
lclavicle 7.9147e-014 -1.98412e-014
lhumerus -50.4708 15.9941 62.9695
lradius 59.791
lwrist 1.39245
lhand -19.4201 20.7044
lfingers 7.12502
lthumb 6.89967 50.5719
rfemur -41.2156 4.74309 13.3969
rtibia 34.6117
rfoot -2.39882 -7.6809
rtoes 12.261
lfemur -10.8867 -6.99658 -12.8729
ltibia 26.8257
lfoot -19.2671 -2.98457
ltoes -24.501
827
root 0.719112 17.2604 10.6957 -353.367 -51.7876 364.877
lowerback 9.93978 0.12513 -6.05753
upperback 0.048286 -0.546186 -0.0217145
thorax -5.48273 -0.111764 3.47086
lowerneck -9.63502 -14.4595 -14.3581
upperneck -29.4777 -17.1264 18.1784
head -4.43236 -8.73675 7.97499
rclavicle 1.32906e-014 -2.34442e-014
rhumerus -20.9778 -6.70693 -81.8779
rradius 29.3503
rwrist 15.515
rhand -29.3629 -2.0472
rfingers 7.12502
rthumb -2.70221 -32.0098
lclavicle 1.32906e-014 -2.34442e-014
lhumerus -50.2745 15.9519 63.1512
lradius 59.3249
lwrist 1.99049
lhand -19.4199 20.7647
lfingers 7.12502
lthumb 6.89979 50.6322
rfemur -42.0817 4.60325 13.2301
rtibia 34.3558
rfoot -2.09449 -7.4231
rtoes 11.9278
lfemur -11.7054 -4.99261 -13.4206
ltibia 26.8937
lfoot -19.4722 -2.29777
ltoes -23.1391
828
root 0.81341 17.256 10.6623 -353.114 -52.1219 365.146
lowerback 9.92848 0.0296187 -6.31082
upperback 0.036514 -0.695992 0.0783916
thorax -5.46963 -0.177292 3.74069
lowerneck -9.52067 -14.2744 -14.4727
upperneck -29.852 -16.8697 18.3708
head -4.56995 -8.62907 8.11889
rclavicle -5.26655e-014 1.49089e-015
rhumerus -21.172 -8.60969 -81.4646
rradius 28.1425
rwrist 15.5667
rhand -30.2788 -2.1443
rfingers 7.12502
rthumb -3.58673 -32.0939
lclavicle -5.26655e-014 1.49089e-015
lhumerus -50.2383 15.897 63.3792
lradius 58.9967
lwrist 2.46391
lhand -19.4733 20.9045
lfingers 7.12502
lthumb 6.84829 50.7738
rfemur -42.7214 4.49473 12.9067
rtibia 34.0241
rfoot -2.57571 -7.41407
rtoes 12.0956
lfemur -12.5771 -3.39067 -14.0755
ltibia 27.1133
lfoot -19.7324 -1.47027
ltoes -22.6476
829
root 0.913253 17.2577 10.6296 -352.908 -52.231 365.402
lowerback 10.0142 -0.171864 -6.31548
upperback 0.0828153 -0.969435 0.0756091
thorax -5.43843 -0.314037 3.78016
lowerneck -9.60611 -14.1058 -14.4498
upperneck -30.1466 -16.6169 18.5704
head -4.66401 -8.53332 8.22292
rclavicle -2.09469e-014 1.41386e-014
rhumerus -21.4712 -10.1035 -81.2554
rradius 27.4407
rwrist 14.7049
rhand -30.8941 -2.30677
rfingers 7.12502
rthumb -4.18092 -32.2455
lclavicle -2.09469e-014 1.41386e-014
lhumerus -50.1262 16.085 63.394
lradius 58.6718
lwrist 2.65555
lhand -19.3454 20.9129
lfingers 7.12502
lthumb 6.97174 50.7781
rfemur -43.1962 4.04231 12.6838
rtibia 33.6722
rfoot -3.42102 -7.3187
rtoes 10.8514
lfemur -13.4381 -2.67004 -14.6634
ltibia 27.3612
lfoot -19.97 -0.5464
ltoes -22.4726
830
root 1.01551 17.2617 10.6038 -352.568 -52.1575 365.32
lowerback 10.2045 -0.414532 -5.87464
upperback 0.184518 -1.25386 0.0225029
thorax -5.41549 -0.469604 3.51849
lowerneck -9.95892 -13.9743 -14.1974
upperneck -30.3157 -16.4214 18.5976
head -4.71419 -8.46713 8.20492
rclavicle 4.84941e-014 3.59055e-015
rhumerus -21.8681 -11.3977 -81.0465
rradius 26.923
rwrist 13.4502
rhand -31.2623 -2.15608
rfingers 7.12502
rthumb -4.53638 -32.0875
lclavicle 4.84941e-014 3.59055e-015
lhumerus -49.733 15.991 63.3861
lradius 58.162
lwrist 2.92405
lhand -19.2857 20.7245
lfingers 7.12502
lthumb 7.02939 50.5878
rfemur -43.4596 3.1228 12.8997
rtibia 33.3441
rfoot -4.59803 -6.9906
rtoes 8.8979
lfemur -14.1889 -2.6917 -14.8876
ltibia 27.6014
lfoot -20.1071 0.552915
ltoes -23.7543
831
root 1.11871 17.2634 10.5839 -352.313 -52.0435 365.259
lowerback 10.4765 -0.609422 -5.42759
upperback 0.234268 -1.47569 0.0261547
thorax -5.50298 -0.588703 3.30785
lowerneck -10.2358 -13.8854 -14.1043
upperneck -30.3772 -16.2827 18.6083
head -4.72142 -8.41077 8.19461
rclavicle -2.95661e-014 3.1085e-014
rhumerus -22.4257 -13.0093 -80.4436
rradius 26.3427
rwrist 12.8992
rhand -31.178 -2.61655
rfingers 7.12502
rthumb -4.45504 -32.5497
lclavicle -2.95661e-014 3.1085e-014
lhumerus -49.294 15.7567 63.545
lradius 57.5572
lwrist 3.15594
lhand -19.0519 20.7531
lfingers 7.12502
lthumb 7.25503 50.6087
rfemur -43.6417 2.00341 13.2077
rtibia 33.1233
rfoot -6.41543 -6.88388
rtoes 7.46855
lfemur -14.8805 -3.31626 -14.952
ltibia 27.8606
lfoot -20.1618 1.42838
ltoes -25.2893
832
root 1.2195 17.2657 10.5624 -351.952 -51.9194 365.135
lowerback 10.6612 -0.771061 -5.04415
upperback 0.234436 -1.64771 0.139341
thorax -5.59657 -0.678871 3.24084
lowerneck -10.198 -13.8159 -14.2331
upperneck -30.7002 -16.1879 18.681
head -4.82672 -8.36796 8.27921
rclavicle -8.78628e-014 1.5704e-014
rhumerus -23.1056 -14.6495 -79.5959
rradius 25.802
rwrist 12.6142
rhand -31.067 -3.40247
rfingers 7.12502
rthumb -4.34784 -33.3378
lclavicle -8.78628e-014 1.5704e-014
lhumerus -48.888 15.5638 63.875
lradius 56.9029
lwrist 3.13754
lhand -19.0416 20.9744
lfingers 7.12502
lthumb 7.26501 50.8296
rfemur -43.885 1.39871 13.3259
rtibia 33.042
rfoot -9.20617 -7.74473
rtoes 6.01819
lfemur -15.6995 -4.18499 -14.8008
ltibia 28.1713
lfoot -20.2151 1.40292
ltoes -24.2719
833
root 1.31583 17.2687 10.5346 -351.677 -51.8695 365.048
lowerback 10.8215 -0.906335 -4.75009
upperback 0.337188 -1.79214 0.232244
thorax -5.57007 -0.759262 3.19705
lowerneck -10.2335 -13.7043 -14.2194
upperneck -31.2269 -16.0507 18.7011
head -5.01445 -8.31617 8.34676
rclavicle 3.75952e-014 -1.00386e-014
rhumerus -23.5961 -15.9147 -78.9458
rradius 25.3432
rwrist 11.8284
rhand -31.2015 -3.96847
rfingers 7.12502
rthumb -4.47773 -33.9011
lclavicle 3.75952e-014 -1.00386e-014
lhumerus -48.2277 15.5199 64.1812
lradius 56.143
lwrist 2.97172
lhand -19.031 20.7128
lfingers 7.12502
lthumb 7.27523 50.5677
rfemur -44.1139 1.3026 13.2325
rtibia 33.1249
rfoot -12.7393 -9.2961
rtoes 6.2157
lfemur -16.5182 -4.52521 -14.6542
ltibia 28.484
lfoot -20.031 0.777975
ltoes -22.4933
834
root 1.40471 17.2732 10.5027 -351.352 -51.9728 364.813
lowerback 10.9825 -1.02652 -4.51242
upperback 0.463088 -1.91977 0.372717
thorax -5.51851 -0.830365 3.2325
lowerneck -10.3701 -13.5417 -14.1144
upperneck -31.6362 -15.8497 18.6535
head -5.17595 -8.23491 8.36879
rclavicle -4.87022e-015 5.76476e-015
rhumerus -24.0272 -17.2909 -78.1681
rradius 24.7303
rwrist 11.7432
rhand -31.2907 -3.77483
rfingers 7.12502
rthumb -4.56389 -33.7057
lclavicle -4.87022e-015 5.76476e-015
lhumerus -47.6439 15.6654 64.3841
lradius 55.4249
lwrist 2.64708
lhand -18.8294 20.4396
lfingers 7.12502
lthumb 7.46979 50.2877
rfemur -44.3519 0.932634 13.5097
rtibia 33.3703
rfoot -15.7661 -10.6565
rtoes 7.11475
lfemur -17.2118 -4.23034 -14.4949
ltibia 28.7838
lfoot -19.7393 0.319684
ltoes -22.4455
835
root 1.48202 17.2858 10.4721 -350.885 -52.3302 364.437
lowerback 10.995 -1.07198 -4.32239
upperback 0.468864 -1.94513 0.568936
thorax -5.5163 -0.845332 3.33588
lowerneck -10.3115 -13.3742 -14.2658
upperneck -31.8725 -15.6371 18.6524
head -5.28332 -8.12533 8.44117
rclavicle 7.05686e-015 1.09332e-014
rhumerus -24.7432 -18.4332 -77.173
rradius 24.0615
rwrist 12.1244
rhand -31.3063 -3.39503
rfingers 7.12502
rthumb -4.57893 -33.3255
lclavicle 7.05686e-015 1.09332e-014
lhumerus -47.408 15.8158 64.5602
lradius 54.8644
lwrist 2.25551
lhand -18.6218 20.8594
lfingers 7.12502
lthumb 7.67019 50.7003
rfemur -44.6893 -0.0614731 14.3372
rtibia 33.7829
rfoot -17.5905 -11.5394
rtoes 7.65762
lfemur -17.7884 -3.76264 -14.3087
ltibia 29.0153
lfoot -19.542 0.107788
ltoes -22.5311
836
root 1.55471 17.2988 10.4429 -350.664 -52.7509 364.222
lowerback 11.0442 -1.05027 -4.2616
upperback 0.504056 -1.89935 0.761711
thorax -5.50604 -0.823074 3.49867
lowerneck -10.2566 -13.25 -14.4739
upperneck -32.0388 -15.4815 18.6277
head -5.35809 -8.03391 8.50184
rclavicle -7.63333e-014 8.54774e-015
rhumerus -25.4538 -19.1639 -76.2223
rradius 23.459
rwrist 12.4324
rhand -31.2084 -3.44737
rfingers 7.12502
rthumb -4.48435 -33.3799
lclavicle -7.63333e-014 8.54774e-015
lhumerus -47.1545 15.9525 64.8295
lradius 54.3449
lwrist 1.93736
lhand -18.4254 20.9183
lfingers 7.12502
lthumb 7.8598 50.7522
rfemur -44.9251 -1.19676 15.1888
rtibia 34.3705
rfoot -18.7764 -12.4098
rtoes 8.18659
lfemur -18.1196 -3.37658 -14.2351
ltibia 29.1285
lfoot -19.4245 -0.259566
ltoes -21.659
